<?xml version="1.0" encoding="utf-8"?>
<!-- Generator: Adobe Illustrator 24.0.3, SVG Export Plug-In . SVG Version: 6.00 Build 0)  -->
<svg version="1.1" id="Layer_1" xmlns="http://www.w3.org/2000/svg" xmlns:xlink="http://www.w3.org/1999/xlink" x="0px" y="0px"
	 viewBox="0 0 173.1 172.8" style="enable-background:new 0 0 173.1 172.8;" xml:space="preserve">
<style type="text/css">
	.st0{clip-path:url(#SVGID_2_);fill:none;stroke:#000000;stroke-width:0.75;stroke-miterlimit:10;}
</style>
<g>
	<g>
		<g>
			<g>
				<g>
					<defs>
						<rect id="SVGID_1_" x="-2" y="-2.2" width="177.2" height="177.1"/>
					</defs>
					<clipPath id="SVGID_2_">
						<use xlink:href="#SVGID_1_"  style="overflow:visible;"/>
					</clipPath>
					<path class="st0" d="M166.4,148.7L32.8,172.2c-4,0.7-8-2-8.7-6.1L0.6,32.6c-0.7-4,2-7.9,6.1-8.6L140.3,0.5c4-0.7,8,2,8.7,6.1
						l23.5,133.6C173.2,144.2,170.5,148,166.4,148.7z M150.5,137.5L44.3,156.3c-4.2,0.7-8.3-2.1-9-6.4L16.6,43.7c-0.7-4,2-8,6.1-8.7
						l106.7-18.8c4-0.7,7.9,2,8.6,6l18.6,106.5C157.2,132.9,154.5,136.8,150.5,137.5z M127.7,38.2c0.9,4.8-2.4,9.5-7.3,10.4
						c-4.8,0.8-9.6-2.4-10.4-7.3s2.4-9.6,7.3-10.4C122.1,30.1,126.8,33.4,127.7,38.2z M110.3,82.2c2.3,13.2-6.5,25.9-19.8,28.3
						c-13.2,2.3-25.9-6.6-28.3-19.8C59.9,77.5,68.8,64.8,82,62.4C95.4,60,108,68.9,110.3,82.2z M123.4,79.9
						c3.6,20.5-10.1,40-30.5,43.6c-20.5,3.6-40-10.1-43.6-30.5c-3.6-20.5,10.1-40,30.5-43.6S119.8,59.4,123.4,79.9z"/>
				</g>
			</g>
		</g>
	</g>
</g>
</svg>
