<?xml version="1.0" encoding="utf-8"?>
<!-- Generator: Adobe Illustrator 24.0.3, SVG Export Plug-In . SVG Version: 6.00 Build 0)  -->
<svg version="1.1" id="Logo" xmlns="http://www.w3.org/2000/svg" xmlns:xlink="http://www.w3.org/1999/xlink" x="0px" y="0px"
	 viewBox="0 0 612 792" style="enable-background:new 0 0 612 792;" xml:space="preserve">
<style type="text/css">
	.st0{clip-path:url(#SVGID_2_);fill:none;stroke:#000000;stroke-width:0.5;stroke-miterlimit:10;}
</style>
<g>
	<g>
		<defs>
			<rect id="SVGID_1_" x="217.4" y="307.4" width="177.2" height="177.1"/>
		</defs>
		<clipPath id="SVGID_2_">
			<use xlink:href="#SVGID_1_"  style="overflow:visible;"/>
		</clipPath>
		<path class="st0" d="M385.8,458.3l-133.6,23.5c-4,0.7-8-2-8.7-6.1L220,342.2c-0.7-4,2-7.9,6.1-8.6l133.6-23.5c4-0.7,8,2,8.7,6.1
			l23.5,133.6C392.6,453.8,389.9,457.6,385.8,458.3z M369.9,447.1l-106.2,18.8c-4.2,0.7-8.3-2.1-9-6.4L236,353.3c-0.7-4,2-8,6.1-8.7
			l106.7-18.8c4-0.7,7.9,2,8.6,6L376,438.3C376.6,442.5,373.9,446.4,369.9,447.1z M347.1,347.8c0.9,4.8-2.4,9.5-7.3,10.4
			c-4.8,0.8-9.6-2.4-10.4-7.3s2.4-9.6,7.3-10.4C341.5,339.7,346.2,343,347.1,347.8z M329.7,391.8c2.3,13.2-6.5,25.9-19.8,28.3
			c-13.2,2.3-25.9-6.6-28.3-19.8c-2.3-13.2,6.6-25.9,19.8-28.3C314.8,369.6,327.4,378.5,329.7,391.8z M342.8,389.5
			c3.6,20.5-10.1,40-30.5,43.6c-20.5,3.6-40-10.1-43.6-30.5c-3.6-20.5,10.1-40,30.5-43.6S339.2,369,342.8,389.5z"/>
	</g>
</g>
</svg>
