<?xml version="1.0" encoding="utf-8"?>
<!-- Generator: Adobe Illustrator 24.0.3, SVG Export Plug-In . SVG Version: 6.00 Build 0)  -->
<svg version="1.1" id="Layer_1" xmlns="http://www.w3.org/2000/svg" xmlns:xlink="http://www.w3.org/1999/xlink" x="0px" y="0px"
	 viewBox="0 0 194 193" style="enable-background:new 0 0 194 193;" xml:space="preserve">
<style type="text/css">
	.st0{clip-path:url(#SVGID_2_);fill:none;stroke:#000000;stroke-width:0.5;stroke-miterlimit:10;}
</style>
<g>
	<g>
		<g>
			<defs>
				<rect id="SVGID_1_" x="6.33" y="10.62" width="177.2" height="177.1"/>
			</defs>
			<clipPath id="SVGID_2_">
				<use xlink:href="#SVGID_1_"  style="overflow:visible;"/>
			</clipPath>
			<path class="st0" d="M174.73,161.52l-133.6,23.5c-4,0.7-8-2-8.7-6.1L8.93,45.42c-0.7-4,2-7.9,6.1-8.6l133.6-23.5
				c4-0.7,8,2,8.7,6.1l23.5,133.6C181.53,157.02,178.83,160.82,174.73,161.52z M158.83,150.32l-106.2,18.8c-4.2,0.7-8.3-2.1-9-6.4
				l-18.7-106.2c-0.7-4,2-8,6.1-8.7l106.7-18.8c4-0.7,7.9,2,8.6,6l18.6,106.5C165.53,145.72,162.83,149.62,158.83,150.32z
				 M136.03,51.02c0.9,4.8-2.4,9.5-7.3,10.4c-4.8,0.8-9.6-2.4-10.4-7.3s2.4-9.6,7.3-10.4C130.43,42.92,135.13,46.22,136.03,51.02z
				 M118.63,95.02c2.3,13.2-6.5,25.9-19.8,28.3c-13.2,2.3-25.9-6.6-28.3-19.8c-2.3-13.2,6.6-25.9,19.8-28.3
				C103.73,72.82,116.33,81.72,118.63,95.02z M131.73,92.72c3.6,20.5-10.1,40-30.5,43.6c-20.5,3.6-40-10.1-43.6-30.5
				c-3.6-20.5,10.1-40,30.5-43.6S128.13,72.22,131.73,92.72z"/>
		</g>
	</g>
</g>
</svg>
