<?xml version="1.0" encoding="utf-8"?>
<!-- Generator: Adobe Illustrator 24.0.3, SVG Export Plug-In . SVG Version: 6.00 Build 0)  -->
<svg version="1.1" id="Layer_1" xmlns="http://www.w3.org/2000/svg" xmlns:xlink="http://www.w3.org/1999/xlink" x="0px" y="0px"
	 viewBox="0 0 792 4459.1" style="enable-background:new 0 0 792 4459.1;" xml:space="preserve">
<style type="text/css">
	.st0{opacity:0.1;fill:#E7C6DD;enable-background:new    ;}
	.st1{opacity:0.1;fill:#F2AAAB;enable-background:new    ;}
	.st2{opacity:0.1;fill:#AFDFE0;enable-background:new    ;}
	.st3{opacity:0.1;fill:#936CAE;enable-background:new    ;}
	.st4{opacity:0.1;fill:#F2B355;enable-background:new    ;}
	.st5{fill:#FFFFFF;stroke:#000000;stroke-width:0.5;stroke-miterlimit:10;}
</style>
<circle class="st0" cx="299.9" cy="377.9" r="92.1"/>
<ellipse transform="matrix(0.7071 -0.7071 0.7071 0.7071 68.6399 358.7648)" class="st1" cx="467.4" cy="96.5" rx="63.4" ry="63.4"/>
<circle class="st2" cx="398.4" cy="582.3" r="144.7"/>
<circle class="st3" cx="230.4" cy="239.8" r="57.6"/>
<ellipse transform="matrix(0.7071 -0.7071 0.7071 0.7071 -116.857 425.851)" class="st2" cx="455.6" cy="354" rx="74.3" ry="74.3"/>
<circle class="st1" cx="400.7" cy="424.4" r="30.6"/>
<circle class="st1" cx="435.8" cy="223.1" r="66.9"/>
<ellipse transform="matrix(0.1602 -0.9871 0.9871 0.1602 -283.3338 597.9283)" class="st3" cx="209.7" cy="465.5" rx="30.6" ry="30.6"/>
<circle class="st2" cx="429.6" cy="462" r="15.7"/>
<circle class="st3" cx="438.3" cy="438.4" r="8.3"/>
<circle class="st3" cx="454.6" cy="461.1" r="8.3"/>
<circle class="st4" cx="457.1" cy="439.5" r="9.7"/>
<circle class="st1" cx="468.2" cy="463.4" r="4.5"/>
<circle class="st1" cx="446.7" cy="449.8" r="4.5"/>
<circle class="st2" cx="465.9" cy="452.7" r="5.6"/>
<circle class="st2" cx="365" cy="267.9" r="15.7"/>
<circle class="st3" cx="385.6" cy="281.1" r="8.3"/>
<circle class="st3" cx="345" cy="284.6" r="10.3"/>
<circle class="st1" cx="360" cy="288.1" r="4.5"/>
<circle class="st4" cx="367.9" cy="300.5" r="9.7"/>
<circle class="st4" cx="402.6" cy="291.2" r="7"/>
<circle class="st1" cx="373.4" cy="286.7" r="4.5"/>
<circle class="st2" cx="354" cy="296.4" r="3.7"/>
<circle class="st2" cx="387.5" cy="298.9" r="8.7"/>
<circle class="st3" cx="376.8" cy="314.3" r="6.4"/>
<circle class="st1" cx="387.9" cy="312.1" r="4.5"/>
<circle class="st4" cx="381.3" cy="324.5" r="3.7"/>
<ellipse transform="matrix(0.1602 -0.9871 0.9871 0.1602 246.1464 625.2353)" class="st4" cx="490.5" cy="168" rx="9.7" ry="9.7"/>
<circle class="st3" cx="512" cy="158.5" r="6.4"/>
<circle class="st2" cx="501" cy="189.4" r="6"/>
<circle class="st1" cx="476.9" cy="163.8" r="3.9"/>
<circle class="st1" cx="494.2" cy="181.2" r="3.7"/>
<circle class="st1" cx="504.1" cy="166.1" r="3.7"/>
<circle class="st3" cx="502.5" cy="178.1" r="4.7"/>
<circle class="st4" cx="501.9" cy="198.5" r="2.5"/>
<circle class="st2" cx="508.5" cy="172.3" r="3.5"/>
<circle class="st2" cx="501.5" cy="159.3" r="3.5"/>
<circle class="st2" cx="505.6" cy="238.6" r="3.5"/>
<circle class="st4" cx="504.8" cy="232.6" r="2.3"/>
<circle class="st4" cx="537" cy="212.6" r="33"/>
<circle class="st0" cx="326" cy="100.4" r="92.1"/>
<circle class="st2" cx="211.2" cy="148.1" r="31"/>
<circle class="st3" cx="325.1" cy="216.3" r="16.5"/>
<circle class="st4" cx="319.8" cy="259.2" r="19.2"/>
<circle class="st1" cx="297.9" cy="211.7" r="9.1"/>
<circle class="st1" cx="340.4" cy="239" r="9.1"/>
<circle class="st2" cx="302.2" cy="233.2" r="11.1"/>
<circle class="st3" cx="560.3" cy="121.7" r="30.6"/>
<circle class="st2" cx="195.1" cy="530.3" r="19.2"/>
<circle class="st3" cx="221.9" cy="515" r="10.3"/>
<circle class="st3" cx="219.2" cy="549.3" r="10.3"/>
<circle class="st4" cx="238.8" cy="530.9" r="12"/>
<circle class="st1" cx="220.9" cy="532.4" r="5.6"/>
<circle class="st2" cx="237" cy="550.3" r="7"/>
<circle class="st0" cx="592.5" cy="1041.3" r="92.1"/>
<circle class="st2" cx="591.3" cy="814.4" r="144.7"/>
<circle class="st3" cx="596" cy="1195.9" r="57.6"/>
<circle class="st2" cx="441.6" cy="996.1" r="74.3"/>
<circle class="st1" cx="521.5" cy="956" r="30.6"/>
<circle class="st1" cx="403.4" cy="1122.6" r="66.9"/>
<circle class="st3" cx="572.3" cy="633.9" r="30.6"/>
<ellipse transform="matrix(0.9239 -0.3827 0.3827 0.9239 -317.7874 257.8564)" class="st4" cx="489.3" cy="927.7" rx="9.7" ry="9.7"/>
<circle class="st2" cx="486.4" cy="1112.7" r="15.7"/>
<circle class="st3" cx="473.4" cy="1091.9" r="8.3"/>
<circle class="st3" cx="511.6" cy="1106.3" r="10.3"/>
<circle class="st1" cx="499.6" cy="1096.4" r="4.5"/>
<circle class="st4" cx="497.7" cy="1082" r="9.7"/>
<circle class="st4" cx="462.4" cy="1075.6" r="7"/>
<circle class="st1" cx="486.8" cy="1092.1" r="4.5"/>
<circle class="st2" cx="508.5" cy="1091.7" r="3.7"/>
<circle class="st2" cx="479.4" cy="1074.9" r="8.7"/>
<circle class="st3" cx="495.7" cy="1065.7" r="6.4"/>
<circle class="st1" cx="484.7" cy="1063" r="4.5"/>
<circle class="st4" cx="496.1" cy="1054.5" r="3.7"/>
<circle class="st4" cx="454.8" cy="744.8" r="9.7"/>
<circle class="st3" cx="431.5" cy="744.2" r="6.4"/>
<circle class="st2" cx="454.6" cy="720.9" r="6"/>
<circle class="st1" cx="479.4" cy="1136.1" r="3.9"/>
<circle class="st1" cx="457.3" cy="731.4" r="3.7"/>
<circle class="st1" cx="441.8" cy="740.7" r="3.7"/>
<circle class="st3" cx="448.4" cy="730.6" r="4.7"/>
<circle class="st4" cx="490.9" cy="1136.1" r="2.5"/>
<circle class="st2" cx="440.5" cy="733.3" r="3.5"/>
<circle class="st2" cx="441.4" cy="747.9" r="3.5"/>
<circle class="st2" cx="347" cy="1078.7" r="3.5"/>
<circle class="st4" cx="345" cy="1084.4" r="2.3"/>
<circle class="st4" cx="325.1" cy="1332.6" r="33"/>
<circle class="st0" cx="449.6" cy="1280.6" r="92.1"/>
<circle class="st2" cx="573.7" cy="1287" r="31"/>
<circle class="st3" cx="500.2" cy="1176.3" r="16.5"/>
<circle class="st4" cx="523.5" cy="1140" r="19.2"/>
<circle class="st1" cx="522.9" cy="1192.2" r="9.1"/>
<circle class="st1" cx="496.1" cy="1149.3" r="9.1"/>
<circle class="st2" cx="528.1" cy="1171" r="11.1"/>
<circle class="st2" cx="425.5" cy="772.5" r="19.2"/>
<circle class="st3" cx="394.7" cy="774.8" r="10.3"/>
<circle class="st3" cx="411.8" cy="745" r="10.3"/>
<circle class="st4" cx="386.2" cy="753.3" r="12"/>
<circle class="st1" cx="403.2" cy="759.7" r="5.6"/>
<circle class="st2" cx="396.4" cy="736.6" r="7"/>
<circle class="st1" cx="567.3" cy="399.2" r="23.9"/>
<circle class="st3" cx="558.4" cy="503.3" r="21.7"/>
<circle class="st0" cx="537.2" cy="443.2" r="34.7"/>
<circle class="st2" cx="526.2" cy="488.6" r="11.6"/>
<circle class="st3" cx="572.3" cy="469.2" r="6.2"/>
<circle class="st4" cx="584.2" cy="480.3" r="7.2"/>
<circle class="st1" cx="564.8" cy="476.4" r="3.5"/>
<circle class="st1" cx="582.6" cy="469.4" r="3.5"/>
<circle class="st2" cx="572.3" cy="479.9" r="4.1"/>
<circle class="st3" cx="543.2" cy="370.1" r="11.6"/>
<circle class="st2" cx="361.9" cy="1054.7" r="7.2"/>
<circle class="st3" cx="363.1" cy="1043.2" r="3.9"/>
<circle class="st3" cx="373" cy="1051.6" r="3.9"/>
<circle class="st1" cx="368.1" cy="1047.5" r="2.1"/>
<circle class="st2" cx="377.2" cy="1046.5" r="2.7"/>
<circle class="st0" cx="349.7" cy="1735.8" r="92.1"/>
<ellipse transform="matrix(0.7071 -0.7071 0.7071 0.7071 -876.9271 791.6518)" class="st1" cx="517.1" cy="1454.4" rx="63.4" ry="63.4"/>
<circle class="st2" cx="448.2" cy="1940.2" r="144.7"/>
<circle class="st3" cx="280.1" cy="1597.7" r="57.6"/>
<ellipse transform="matrix(0.7071 -0.7071 0.7071 0.7071 -1062.424 858.7379)" class="st2" cx="505.4" cy="1711.8" rx="74.3" ry="74.3"/>
<circle class="st1" cx="450.5" cy="1782.2" r="30.6"/>
<circle class="st1" cx="485.6" cy="1580.9" r="66.9"/>
<ellipse transform="matrix(0.1602 -0.9871 0.9871 0.1602 -1581.8574 1787.3843)" class="st3" cx="259.5" cy="1823.3" rx="30.6" ry="30.6"/>
<circle class="st2" cx="479.4" cy="1819.8" r="15.7"/>
<circle class="st3" cx="488" cy="1796.3" r="8.3"/>
<circle class="st3" cx="504.3" cy="1819" r="8.3"/>
<circle class="st4" cx="506.8" cy="1797.3" r="9.7"/>
<circle class="st1" cx="518" cy="1821.3" r="4.5"/>
<circle class="st1" cx="496.5" cy="1807.6" r="4.5"/>
<circle class="st2" cx="515.7" cy="1810.5" r="5.6"/>
<circle class="st2" cx="414.7" cy="1625.7" r="15.7"/>
<circle class="st3" cx="435.4" cy="1638.9" r="8.3"/>
<circle class="st3" cx="394.7" cy="1642.5" r="10.3"/>
<circle class="st1" cx="409.8" cy="1646" r="4.5"/>
<circle class="st4" cx="417.6" cy="1658.4" r="9.7"/>
<circle class="st4" cx="452.3" cy="1649.1" r="7"/>
<circle class="st1" cx="423.2" cy="1644.5" r="4.5"/>
<circle class="st2" cx="403.8" cy="1654.2" r="3.7"/>
<circle class="st2" cx="437.2" cy="1656.7" r="8.7"/>
<circle class="st3" cx="426.5" cy="1672.2" r="6.4"/>
<circle class="st1" cx="437.7" cy="1669.9" r="4.5"/>
<circle class="st4" cx="431.1" cy="1682.3" r="3.7"/>
<ellipse transform="matrix(0.1602 -0.9871 0.9871 0.1602 -1052.3772 1814.6917)" class="st4" cx="540.3" cy="1525.8" rx="9.7" ry="9.7"/>
<circle class="st3" cx="561.7" cy="1516.3" r="6.4"/>
<circle class="st2" cx="550.8" cy="1547.3" r="6"/>
<circle class="st1" cx="526.6" cy="1521.7" r="3.9"/>
<circle class="st1" cx="544" cy="1539" r="3.7"/>
<circle class="st1" cx="553.9" cy="1523.9" r="3.7"/>
<circle class="st3" cx="552.2" cy="1535.9" r="4.7"/>
<circle class="st4" cx="551.6" cy="1556.4" r="2.5"/>
<circle class="st2" cx="558.2" cy="1530.1" r="3.5"/>
<circle class="st2" cx="551.2" cy="1517.1" r="3.5"/>
<circle class="st2" cx="555.3" cy="1596.4" r="3.5"/>
<circle class="st4" cx="554.5" cy="1590.4" r="2.3"/>
<circle class="st4" cx="586.7" cy="1570.4" r="33"/>
<circle class="st0" cx="375.7" cy="1458.3" r="92.1"/>
<circle class="st2" cx="260.9" cy="1506" r="31"/>
<circle class="st3" cx="374.9" cy="1574.1" r="16.5"/>
<circle class="st4" cx="369.5" cy="1617.1" r="19.2"/>
<circle class="st1" cx="347.6" cy="1569.6" r="9.1"/>
<circle class="st1" cx="390.2" cy="1596.8" r="9.1"/>
<circle class="st2" cx="352" cy="1591" r="11.1"/>
<circle class="st3" cx="610.1" cy="1479.6" r="30.6"/>
<circle class="st2" cx="244.8" cy="1888.1" r="19.2"/>
<circle class="st3" cx="271.7" cy="1872.9" r="10.3"/>
<circle class="st3" cx="269" cy="1907.1" r="10.3"/>
<circle class="st4" cx="288.6" cy="1888.8" r="12"/>
<circle class="st1" cx="270.6" cy="1890.2" r="5.6"/>
<circle class="st2" cx="286.7" cy="1908.2" r="7"/>
<circle class="st0" cx="642.3" cy="2399.1" r="92.1"/>
<circle class="st2" cx="641" cy="2172.2" r="144.7"/>
<circle class="st3" cx="645.8" cy="2553.8" r="57.6"/>
<circle class="st2" cx="491.3" cy="2353.9" r="74.3"/>
<circle class="st1" cx="571.2" cy="2313.9" r="30.6"/>
<circle class="st1" cx="453.1" cy="2480.5" r="66.9"/>
<circle class="st3" cx="622" cy="1991.8" r="30.6"/>
<ellipse transform="matrix(0.9239 -0.3827 0.3827 0.9239 -833.6239 380.2572)" class="st4" cx="539" cy="2285.6" rx="9.7" ry="9.7"/>
<circle class="st2" cx="536.1" cy="2470.6" r="15.7"/>
<circle class="st3" cx="523.1" cy="2449.7" r="8.3"/>
<circle class="st3" cx="561.3" cy="2464.2" r="10.3"/>
<circle class="st1" cx="549.4" cy="2454.3" r="4.5"/>
<circle class="st4" cx="547.5" cy="2439.8" r="9.7"/>
<circle class="st4" cx="512.2" cy="2433.4" r="7"/>
<circle class="st1" cx="536.6" cy="2449.9" r="4.5"/>
<circle class="st2" cx="558.2" cy="2449.5" r="3.7"/>
<circle class="st2" cx="529.1" cy="2432.8" r="8.7"/>
<circle class="st3" cx="545.4" cy="2423.5" r="6.4"/>
<circle class="st1" cx="534.5" cy="2420.8" r="4.5"/>
<circle class="st4" cx="545.8" cy="2412.4" r="3.7"/>
<circle class="st4" cx="504.6" cy="2102.7" r="9.7"/>
<circle class="st3" cx="481.2" cy="2102" r="6.4"/>
<circle class="st2" cx="504.3" cy="2078.7" r="6"/>
<circle class="st1" cx="529.1" cy="2493.9" r="3.9"/>
<circle class="st1" cx="507" cy="2089.2" r="3.7"/>
<circle class="st1" cx="491.5" cy="2098.5" r="3.7"/>
<circle class="st3" cx="498.2" cy="2088.4" r="4.7"/>
<circle class="st4" cx="540.7" cy="2493.9" r="2.5"/>
<circle class="st2" cx="490.3" cy="2091.1" r="3.5"/>
<circle class="st2" cx="491.1" cy="2105.8" r="3.5"/>
<circle class="st2" cx="396.8" cy="2436.5" r="3.5"/>
<circle class="st4" cx="394.7" cy="2442.3" r="2.3"/>
<circle class="st4" cx="374.9" cy="2690.5" r="33"/>
<circle class="st0" cx="499.4" cy="2638.4" r="92.1"/>
<circle class="st2" cx="623.5" cy="2644.8" r="31"/>
<circle class="st3" cx="550" cy="2534.2" r="16.5"/>
<circle class="st4" cx="573.3" cy="2497.8" r="19.2"/>
<circle class="st1" cx="572.7" cy="2550.1" r="9.1"/>
<circle class="st1" cx="545.8" cy="2507.1" r="9.1"/>
<circle class="st2" cx="577.8" cy="2528.8" r="11.1"/>
<circle class="st2" cx="475.2" cy="2130.3" r="19.2"/>
<circle class="st3" cx="444.5" cy="2132.6" r="10.3"/>
<circle class="st3" cx="461.6" cy="2102.9" r="10.3"/>
<circle class="st4" cx="436" cy="2111.1" r="12"/>
<circle class="st1" cx="452.9" cy="2117.5" r="5.6"/>
<circle class="st2" cx="446.1" cy="2094.4" r="7"/>
<circle class="st1" cx="617.1" cy="1757" r="23.9"/>
<circle class="st3" cx="608.2" cy="1861.1" r="21.7"/>
<circle class="st0" cx="586.9" cy="1801" r="34.7"/>
<circle class="st2" cx="576" cy="1846.4" r="11.6"/>
<circle class="st3" cx="622" cy="1827" r="6.2"/>
<circle class="st4" cx="634" cy="1838.2" r="7.2"/>
<circle class="st1" cx="614.6" cy="1834.3" r="3.5"/>
<circle class="st1" cx="632.4" cy="1827.2" r="3.5"/>
<circle class="st2" cx="622" cy="1837.8" r="4.1"/>
<circle class="st3" cx="592.9" cy="1727.9" r="11.6"/>
<circle class="st2" cx="411.6" cy="2412.6" r="7.2"/>
<circle class="st3" cx="412.9" cy="2401" r="3.9"/>
<circle class="st3" cx="422.8" cy="2409.5" r="3.9"/>
<circle class="st1" cx="417.8" cy="2405.3" r="2.1"/>
<circle class="st2" cx="426.9" cy="2404.3" r="2.7"/>
<circle class="st0" cx="403" cy="3094.8" r="92.1"/>
<ellipse transform="matrix(0.7071 -0.7071 0.7071 0.7071 -1822.3059 1227.3684)" class="st1" cx="570.4" cy="2813.4" rx="63.4" ry="63.4"/>
<circle class="st2" cx="501.5" cy="3299.2" r="144.7"/>
<circle class="st3" cx="333.4" cy="2956.7" r="57.6"/>
<ellipse transform="matrix(0.7071 -0.7071 0.7071 0.7071 -2007.8029 1294.4546)" class="st2" cx="558.6" cy="3070.9" rx="74.3" ry="74.3"/>
<circle class="st1" cx="503.7" cy="3141.3" r="30.6"/>
<circle class="st1" cx="538.8" cy="2940" r="66.9"/>
<ellipse transform="matrix(0.1602 -0.9871 0.9871 0.1602 -2878.6057 2981.3025)" class="st3" cx="312.7" cy="3182.3" rx="30.6" ry="30.6"/>
<circle class="st2" cx="532.6" cy="3178.8" r="15.7"/>
<circle class="st3" cx="541.3" cy="3155.3" r="8.3"/>
<circle class="st3" cx="557.6" cy="3178" r="8.3"/>
<circle class="st4" cx="560.1" cy="3156.3" r="9.7"/>
<circle class="st1" cx="571.2" cy="3180.3" r="4.5"/>
<circle class="st1" cx="549.8" cy="3166.7" r="4.5"/>
<circle class="st2" cx="569" cy="3169.5" r="5.6"/>
<circle class="st2" cx="468" cy="2984.8" r="15.7"/>
<circle class="st3" cx="488.7" cy="2998" r="8.3"/>
<circle class="st3" cx="448" cy="3001.5" r="10.3"/>
<circle class="st1" cx="463.1" cy="3005" r="4.5"/>
<circle class="st4" cx="470.9" cy="3017.4" r="9.7"/>
<circle class="st4" cx="505.6" cy="3008.1" r="7"/>
<circle class="st1" cx="476.5" cy="3003.6" r="4.5"/>
<circle class="st2" cx="457.1" cy="3013.3" r="3.7"/>
<circle class="st2" cx="490.5" cy="3015.7" r="8.7"/>
<circle class="st3" cx="479.8" cy="3031.2" r="6.4"/>
<circle class="st1" cx="490.9" cy="3028.9" r="4.5"/>
<circle class="st4" cx="484.3" cy="3041.3" r="3.7"/>
<ellipse transform="matrix(0.1602 -0.9871 0.9871 0.1602 -2349.1255 3008.6099)" class="st4" cx="593.5" cy="2884.8" rx="9.7" ry="9.7"/>
<circle class="st3" cx="615" cy="2875.3" r="6.4"/>
<circle class="st2" cx="604.1" cy="2906.3" r="6"/>
<circle class="st1" cx="579.9" cy="2880.7" r="3.9"/>
<circle class="st1" cx="597.3" cy="2898.1" r="3.7"/>
<circle class="st1" cx="607.2" cy="2883" r="3.7"/>
<circle class="st3" cx="605.5" cy="2895" r="4.7"/>
<circle class="st4" cx="604.9" cy="2915.4" r="2.5"/>
<circle class="st2" cx="611.5" cy="2889.2" r="3.5"/>
<circle class="st2" cx="604.5" cy="2876.2" r="3.5"/>
<circle class="st2" cx="608.6" cy="2955.4" r="3.5"/>
<circle class="st4" cx="607.8" cy="2949.5" r="2.3"/>
<circle class="st4" cx="640" cy="2929.4" r="33"/>
<circle class="st0" cx="429" cy="2817.3" r="92.1"/>
<circle class="st2" cx="314.2" cy="2865" r="31"/>
<circle class="st3" cx="428.2" cy="2933.1" r="16.5"/>
<circle class="st4" cx="422.8" cy="2976.1" r="19.2"/>
<circle class="st1" cx="400.9" cy="2928.6" r="9.1"/>
<circle class="st1" cx="443.4" cy="2955.9" r="9.1"/>
<circle class="st2" cx="405.2" cy="2950.1" r="11.1"/>
<circle class="st3" cx="663.3" cy="2838.6" r="30.6"/>
<circle class="st2" cx="298.1" cy="3247.2" r="19.2"/>
<circle class="st3" cx="324.9" cy="3231.9" r="10.3"/>
<circle class="st3" cx="322.2" cy="3266.2" r="10.3"/>
<circle class="st4" cx="341.9" cy="3247.8" r="12"/>
<circle class="st1" cx="323.9" cy="3249.2" r="5.6"/>
<circle class="st2" cx="340" cy="3267.2" r="7"/>
<circle class="st0" cx="632.7" cy="3636.7" r="92.1"/>
<circle class="st3" cx="636.2" cy="3791.3" r="57.6"/>
<circle class="st2" cx="481.7" cy="3591.5" r="74.3"/>
<circle class="st1" cx="561.6" cy="3551.4" r="30.6"/>
<circle class="st1" cx="443.5" cy="3718" r="66.9"/>
<circle class="st3" cx="675.3" cy="3350.8" r="30.6"/>
<ellipse transform="matrix(0.9239 -0.3827 0.3827 0.9239 -1307.9363 470.7844)" class="st4" cx="529.4" cy="3523.1" rx="9.7" ry="9.7"/>
<circle class="st2" cx="526.5" cy="3708.1" r="15.7"/>
<circle class="st3" cx="513.5" cy="3687.3" r="8.3"/>
<circle class="st3" cx="551.7" cy="3701.7" r="10.3"/>
<circle class="st1" cx="539.8" cy="3691.8" r="4.5"/>
<circle class="st4" cx="537.9" cy="3677.3" r="9.7"/>
<circle class="st4" cx="502.6" cy="3670.9" r="7"/>
<circle class="st1" cx="527" cy="3687.5" r="4.5"/>
<circle class="st2" cx="548.6" cy="3687" r="3.7"/>
<circle class="st2" cx="519.5" cy="3670.3" r="8.7"/>
<circle class="st3" cx="535.8" cy="3661" r="6.4"/>
<circle class="st1" cx="524.9" cy="3658.3" r="4.5"/>
<circle class="st4" cx="536.2" cy="3649.9" r="3.7"/>
<circle class="st4" cx="557.8" cy="3461.7" r="9.7"/>
<circle class="st3" cx="534.5" cy="3461.1" r="6.4"/>
<circle class="st2" cx="557.6" cy="3437.7" r="6"/>
<circle class="st1" cx="519.5" cy="3731.4" r="3.9"/>
<circle class="st1" cx="560.3" cy="3448.3" r="3.7"/>
<circle class="st1" cx="544.8" cy="3457.6" r="3.7"/>
<circle class="st3" cx="551.4" cy="3447.4" r="4.7"/>
<circle class="st4" cx="531.1" cy="3731.4" r="2.5"/>
<circle class="st2" cx="543.6" cy="3450.1" r="3.5"/>
<circle class="st2" cx="544.4" cy="3464.8" r="3.5"/>
<circle class="st2" cx="387.2" cy="3674" r="3.5"/>
<circle class="st4" cx="385.1" cy="3679.8" r="2.3"/>
<circle class="st4" cx="365.3" cy="3928" r="33"/>
<circle class="st0" cx="489.8" cy="3876" r="92.1"/>
<circle class="st2" cx="613.9" cy="3882.4" r="31"/>
<circle class="st3" cx="540.4" cy="3771.7" r="16.5"/>
<circle class="st4" cx="563.7" cy="3735.4" r="19.2"/>
<circle class="st1" cx="563.1" cy="3787.6" r="9.1"/>
<circle class="st1" cx="536.2" cy="3744.6" r="9.1"/>
<circle class="st2" cx="568.2" cy="3766.3" r="11.1"/>
<circle class="st2" cx="528.5" cy="3489.4" r="19.2"/>
<circle class="st3" cx="497.7" cy="3491.6" r="10.3"/>
<circle class="st3" cx="514.9" cy="3461.9" r="10.3"/>
<circle class="st4" cx="489.3" cy="3470.2" r="12"/>
<circle class="st1" cx="506.2" cy="3476.6" r="5.6"/>
<circle class="st2" cx="499.4" cy="3453.4" r="7"/>
<circle class="st1" cx="670.3" cy="3116.1" r="23.9"/>
<circle class="st3" cx="661.5" cy="3220.1" r="21.7"/>
<circle class="st0" cx="640.2" cy="3160.1" r="34.7"/>
<circle class="st2" cx="629.3" cy="3205.5" r="11.6"/>
<circle class="st3" cx="675.3" cy="3186.1" r="6.2"/>
<circle class="st4" cx="687.3" cy="3197.2" r="7.2"/>
<circle class="st1" cx="667.9" cy="3193.3" r="3.5"/>
<circle class="st1" cx="685.6" cy="3186.3" r="3.5"/>
<circle class="st2" cx="675.3" cy="3196.8" r="4.1"/>
<circle class="st3" cx="646.2" cy="3087" r="11.6"/>
<circle class="st2" cx="402" cy="3650.1" r="7.2"/>
<circle class="st3" cx="403.3" cy="3638.5" r="3.9"/>
<circle class="st3" cx="413.2" cy="3647" r="3.9"/>
<circle class="st1" cx="408.2" cy="3642.9" r="2.1"/>
<circle class="st2" cx="417.3" cy="3641.8" r="2.7"/>
<circle class="st4" cx="584.6" cy="4097.7" r="92.1"/>
<circle class="st3" cx="588.1" cy="4252.3" r="57.6"/>
<circle class="st2" cx="433.6" cy="4052.5" r="74.3"/>
<circle class="st1" cx="513.5" cy="4012.4" r="30.6"/>
<circle class="st1" cx="395.4" cy="4179" r="66.9"/>
<ellipse transform="matrix(0.9239 -0.3827 0.3827 0.9239 -1488.0261 487.4689)" class="st4" cx="481.3" cy="3984.1" rx="9.7" ry="9.7"/>
<circle class="st2" cx="478.4" cy="4169.1" r="15.7"/>
<circle class="st3" cx="465.4" cy="4148.3" r="8.3"/>
<circle class="st3" cx="503.6" cy="4162.7" r="10.3"/>
<circle class="st1" cx="491.6" cy="4152.8" r="4.5"/>
<circle class="st4" cx="489.8" cy="4138.4" r="9.7"/>
<circle class="st4" cx="454.5" cy="4132" r="7"/>
<circle class="st1" cx="478.8" cy="4148.5" r="4.5"/>
<circle class="st2" cx="500.5" cy="4148.1" r="3.7"/>
<circle class="st2" cx="471.4" cy="4131.4" r="8.7"/>
<circle class="st3" cx="487.7" cy="4122.1" r="6.4"/>
<circle class="st1" cx="476.8" cy="4119.4" r="4.5"/>
<circle class="st4" cx="488.1" cy="4110.9" r="3.7"/>
<circle class="st1" cx="471.4" cy="4192.5" r="3.9"/>
<circle class="st4" cx="483" cy="4192.5" r="2.5"/>
<circle class="st2" cx="339.1" cy="4135.1" r="3.5"/>
<circle class="st4" cx="337" cy="4140.8" r="2.3"/>
<circle class="st4" cx="317.2" cy="4389" r="33"/>
<circle class="st0" cx="441.7" cy="4337" r="92.1"/>
<circle class="st2" cx="565.8" cy="4343.4" r="31"/>
<circle class="st3" cx="492.3" cy="4232.7" r="16.5"/>
<circle class="st4" cx="515.6" cy="4196.4" r="19.2"/>
<circle class="st1" cx="515" cy="4248.6" r="9.1"/>
<circle class="st1" cx="488.1" cy="4205.7" r="9.1"/>
<circle class="st2" cx="520.1" cy="4227.4" r="11.1"/>
<circle class="st2" cx="353.9" cy="4111.1" r="7.2"/>
<circle class="st3" cx="355.2" cy="4099.6" r="3.9"/>
<circle class="st3" cx="365.1" cy="4108" r="3.9"/>
<circle class="st1" cx="360.1" cy="4103.9" r="2.1"/>
<circle class="st2" cx="369.2" cy="4102.9" r="2.7"/>
<line class="st5" x1="100.3" y1="1628.4" x2="699" y2="1628.4"/>
</svg>
