<?xml version="1.0" encoding="utf-8"?>
<!-- Generator: Adobe Illustrator 24.0.3, SVG Export Plug-In . SVG Version: 6.00 Build 0)  -->
<svg version="1.1" id="Layer_1" xmlns="http://www.w3.org/2000/svg" xmlns:xlink="http://www.w3.org/1999/xlink" x="0px" y="0px"
	 viewBox="0 0 91 92" style="enable-background:new 0 0 91 92;" xml:space="preserve">
<g id="Layer_1_1_">
</g>
<g id="Layer_2_1_">
	<g>
		<path d="M15.8,0.8c4.4,0,7.9,2,10.3,6l4,13.9c0.1,0.5,0.8,6.9-2.9,10.5l-4,4l-0.3,0.3l-0.2,0.2l0.1,0.3c9,27,32.1,32.3,32.4,32.4
			l0.3,0.1l0.2-0.2l4-4c2.6-2.6,6.5-3,8.7-3c1,0,1.7,0.1,1.9,0.1l13.9,4c3.9,2.4,5.9,5.8,6,10.3c0,3-0.9,5.4-1.2,6
			c-4.5,3.6-7.4,7.3-7.9,7.9c-0.4,0.2-2.2,0.9-4.7,0.9c0,0-0.7,0-1.9,0c-5.9,0-21.5-1.1-37.9-11c-5.4-3.3-10.4-7.5-15.1-12.7
			l-1.4-1.6C-0.7,41.6,1,14.8,1,14.5c0-2.5,0.7-4.3,0.9-4.7c0.7-0.5,4.3-3.4,7.9-7.9C10.3,1.7,12.8,0.8,15.8,0.8 M15.8,0.3
			c-3.5,0-6.2,1.2-6.2,1.2c-4,5-8,8-8,8s-1,2-1,5c0,0-2,27,19,51l1.4,1.6c4.4,4.9,9.5,9.3,15.2,12.8C52.9,90,68.9,91,74.4,91
			c1.3,0,2-0.1,2-0.1c3,0,5-1,5-1s3-4,8-8c0,0,5-11-5-17l-14-4c0,0-0.8-0.1-2-0.1c-2.4,0-6.4,0.4-9,3.1l-4,4c0,0-23-5-32-32
			c0.2-0.2,0.3-0.3,0.3-0.3l4-4c4-4,3-11,3-11l-4-14C23.5,1.5,19.2,0.3,15.8,0.3L15.8,0.3z"/>
	</g>
</g>
</svg>
