<?xml version="1.0" encoding="utf-8"?>
<!-- Generator: Adobe Illustrator 24.0.3, SVG Export Plug-In . SVG Version: 6.00 Build 0)  -->
<svg version="1.1" id="Layer_1" xmlns="http://www.w3.org/2000/svg" xmlns:xlink="http://www.w3.org/1999/xlink" x="0px" y="0px"
	 viewBox="0 0 612 792" style="enable-background:new 0 0 612 792;" xml:space="preserve">
<style type="text/css">
	.st0{clip-path:url(#SVGID_2_);fill:none;stroke:#000000;stroke-miterlimit:10;}
	.st1{fill:#DED3B8;}
	.st2{clip-path:url(#SVGID_4_);fill:#FFFFFF;}
	.st3{clip-path:url(#SVGID_6_);fill:none;stroke:#000000;stroke-miterlimit:10;}
</style>
<g>
	<g>
		<defs>
			<rect id="SVGID_1_" x="126" y="-6.5" width="284.62" height="799"/>
		</defs>
		<clipPath id="SVGID_2_">
			<use xlink:href="#SVGID_1_"  style="overflow:visible;"/>
		</clipPath>
		<path class="st0" d="M257.37,266.29c0,0-10.08,4.97-13.29,10.22c0,0-3.39,8.78-2.97,15.74c-21.68-9.28-37.67-30.69-40.8-56.48
			c0,0,5.15-18.68,4.97-24.92c0,0,12.19-25.4,12.22-32.76c4.05-4.66,8.69-8.72,13.77-12.06 M343.8,155.07c0,0,1.06,7.65-2.11,10.81
			c0,0,4.79-0.09,5.17-1.81c0,0,3.36,0.76-1.92,7.35c0,0,0.91,0.29,1.63,0.33c0.59,0.04,1.06,0.51,1.05,1.1
			c-0.01,0.66-0.15,1.46-0.63,2.18c0,0,1.44,6.7-4.99,12.45c0,0-0.19,15.5-5.75,27.26c0,0,2.83,12.02,0.76,21.77 M231.11,166.16
			c12.07-7.11,36.56-0.9,36.56-0.9s23.55-1.97,32.5,1.45c0,0,28.76,7.71,51.28-19.4c0,0-8.6-1.37-9.94-3c0,0,1.49-0.52,1.49-1.33
			c0,0-9.82-3.03-10.48-5.99c0,0,2.9-1.26,3.42-2.52c0,0-19.56-1.7-19.93-5.25c0,0,1.26-0.52,1.71-1.78c0,0-9.67-2.22-13.24-6.07
			s-14.5-2-14.5-2s2.78-2.26,3.34-4.5c0,0,0.84-1.84-6.65,0.93c-7.49,2.77-16.51,2.29-16.51,2.29s-6.85-1.28-10.91,2.77
			c0,0,0.2-3.64-0.34-4.38c0,0-6.78,11.8-9.55,13.56c0,0,1.56-5.13,0-8.97c0,0-4.03,6.39-7.6,7.22c0,0-38.19,7.81-49.62,46.76
			c0,0-3.41-9.22-5.78-9.41c0,0,5.02,14.02,3.29,16.47c0,0-5.54-3.31-9.36,0.49c0,0,7.88-0.37,7.51,2.21c0,0-10.62,15.45,3.91,51.14
			 M259.53,265.96c0,0,6.59,2.22,11.8,0 M271.77,215.99c0.01-0.11,0.01-0.21,0.02-0.31 M248.57,280.39
			c1.57-2.63,3.28-3.42,3.28-3.42c8.23-0.87,13.38-5.64,13.38-5.64s0.23-0.21,0.46-0.42c0.23,0.21,0.46,0.42,0.46,0.42
			s5.15,4.77,13.38,5.64c0,0,6.51,3.01,5.8,16.84c-6.33,2.2-13.09,3.39-20.1,3.39c-6.67,0-13.1-1.08-19.17-3.08
			C245.66,287.19,247.05,282.93,248.57,280.39z M273.83,265.96c0,0,10.09,4.97,13.29,10.22c0,0,3.39,8.78,2.97,15.74
			c21.21-9.41,36.84-30.49,40.02-55.85c-0.05-0.14-0.09-0.31-0.09-0.31s-5.15-18.68-4.97-24.92c0,0-12.35-25.73-12.22-32.9
			c-3.73-4.26-7.95-8.03-12.55-11.18 M275.41,255.29c0,0,3.77,8.99-0.76,10.07 M255.05,255.29c0,0-3.77,8.99,0.76,10.07
			 M205.94,267.98c0,0-4.7,0.58-8.41-1.41c-3.7-1.99-2.9-6.08-2.9-6.08c-16.92-12.35-9.31-22.02-9.31-22.02
			c3.8-5.68,10.84-0.63,10.84-0.63s15.6,48.36,22.03,55.35c0,0,17.66,19.91,45.75,19.44h2.79c28.09,0.47,45.75-19.44,45.75-19.44
			c6.43-6.99,22.03-55.35,22.03-55.35s7.04-5.05,10.84,0.63c0,0,7.61,9.66-9.31,22.02c0,0,0.8,4.08-2.9,6.08
			c-3.7,1.99-8.41,1.41-8.41,1.41 M316.07,228.28c-2.23-0.4-4.48-1.96-5.81-3.03c-0.98-0.78-2.1-1.39-3.31-1.71
			c-7.56-2.03-13.08,0.02-13.08,0.02c-9.42,2.91-16.4,3.14-19.26,3.08c-0.86-0.02-1.61-0.55-1.94-1.33l-1.94-4.65
			c-0.34-0.8,0.08-1.72,0.91-1.98c4.45-1.44,17.89-5.27,29.94-3.44c0.43,0.07,0.84,0.17,1.24,0.32c2.56,0.95,12.19,4.85,15.47,11.02
			C318.28,226.57,317.81,228.59,316.07,228.28z M214.39,228.28c2.23-0.4,4.48-1.96,5.81-3.03c0.98-0.78,2.1-1.39,3.31-1.71
			c7.56-2.03,13.08,0.02,13.08,0.02c9.42,2.91,16.4,3.14,19.26,3.08c0.86-0.02,1.62-0.55,1.94-1.33l1.94-4.65
			c0.33-0.8-0.08-1.72-0.91-1.98c-4.45-1.44-17.89-5.27-29.93-3.44c-0.43,0.07-0.84,0.17-1.24,0.32
			c-2.56,0.95-12.19,4.85-15.47,11.02C212.18,226.57,212.65,228.59,214.39,228.28z M260.34,236.47c-1.15,0.31-1.81,0.62-1.81,0.62
			l-4.4,13.43c0,0-18.49,8.23-34.68,1.58c0,0-5.3-7.15-7.8-13.41c0,0-3.2,0.9-6.3,0.4c0,0-2.5-3.38-2.6-5.27c0,0,1.4-1.86,7.9-1.48
			c0,0,24.64-9.21,50.07,0.27c0.12-0.04,0.23-0.08,0.23-0.08s4.73-1.73,8.87,0.04c25.4-9.41,49.97-0.22,49.97-0.22
			c6.5-0.39,7.89,1.48,7.89,1.48c-0.1,1.89-2.6,5.27-2.6,5.27c-3.1,0.5-6.3-0.4-6.3-0.4c-2.5,6.27-7.8,13.41-7.8,13.41
			c-16.19,6.65-34.68-1.58-34.68-1.58l-4.4-13.43c-0.65-0.25-1.29-0.46-1.91-0.63C265.92,235.36,262.37,235.92,260.34,236.47z
			 M274.7,236.38l3.36,11.59c0.19,0.67,0.73,1.19,1.41,1.36c4.51,1.12,21.66,4.98,28.72,1.01c0,0,4.04-1.12,6.55-14.12
			c0.18-0.92-0.25-1.89-1.09-2.31c-0.65-0.33-1.63-0.63-3.1-0.76c0,0-19.64-2.68-34.98,1.64C274.89,234.98,274.5,235.7,274.7,236.38
			z M255.77,236.38l-3.36,11.59c-0.19,0.67-0.73,1.19-1.41,1.36c-4.51,1.12-21.66,4.98-28.72,1.01c0,0-4.04-1.12-6.55-14.12
			c-0.18-0.92,0.25-1.89,1.09-2.31c0.65-0.33,1.63-0.63,3.09-0.76c0,0,19.64-2.68,34.98,1.64
			C255.58,234.98,255.96,235.7,255.77,236.38z"/>
	</g>
</g>
<rect x="135" y="0.5" class="st1" width="266.62" height="791"/>
<g>
	<g>
		<defs>
			<rect id="SVGID_3_" x="126" y="-6.5" width="284.62" height="799"/>
		</defs>
		<clipPath id="SVGID_4_">
			<use xlink:href="#SVGID_3_"  style="overflow:visible;"/>
		</clipPath>
		<path class="st2" d="M267.76,329.89c63.4,0,114.79-51.39,114.79-114.79s-51.39-114.79-114.79-114.79s-114.79,51.38-114.79,114.78
			S204.36,329.89,267.76,329.89"/>
	</g>
</g>
<g>
	<g>
		<defs>
			<rect id="SVGID_5_" x="179.01" y="113.77" width="173.38" height="199.36"/>
		</defs>
		<clipPath id="SVGID_6_">
			<use xlink:href="#SVGID_5_"  style="overflow:visible;"/>
		</clipPath>
		<path class="st3" d="M257.37,266.29c0,0-10.08,4.97-13.29,10.22c0,0-3.39,8.78-2.97,15.74c-21.68-9.28-37.67-30.69-40.8-56.48
			c0,0,5.15-18.68,4.97-24.92c0,0,12.19-25.4,12.22-32.76c4.05-4.66,8.69-8.72,13.77-12.06 M343.8,155.07c0,0,1.06,7.65-2.11,10.81
			c0,0,4.79-0.09,5.18-1.81c0,0,3.36,0.76-1.92,7.35c0,0,0.91,0.29,1.63,0.33c0.59,0.04,1.06,0.51,1.05,1.1
			c-0.01,0.66-0.15,1.46-0.63,2.18c0,0,1.44,6.7-5,12.45c0,0-0.19,15.5-5.75,27.26c0,0,2.83,12.02,0.77,21.77 M231.11,166.16
			c12.07-7.11,36.56-0.9,36.56-0.9s23.55-1.97,32.5,1.45c0,0,28.76,7.71,51.28-19.4c0,0-8.6-1.37-9.94-3c0,0,1.49-0.52,1.49-1.33
			c0,0-9.82-3.03-10.49-5.99c0,0,2.9-1.26,3.42-2.52c0,0-19.56-1.7-19.93-5.25c0,0,1.26-0.52,1.71-1.78c0,0-9.67-2.22-13.23-6.07
			c-3.57-3.85-14.5-2-14.5-2s2.78-2.26,3.34-4.5c0,0,0.84-1.83-6.65,0.93s-16.51,2.29-16.51,2.29s-6.85-1.28-10.91,2.77
			c0,0,0.2-3.64-0.34-4.38c0,0-6.78,11.8-9.56,13.56c0,0,1.56-5.13,0-8.97c0,0-4.03,6.38-7.6,7.21c0,0-38.19,7.81-49.62,46.76
			c0,0-3.41-9.22-5.79-9.41c0,0,5.02,14.02,3.29,16.47c0,0-5.54-3.31-9.36,0.49c0,0,7.88-0.37,7.51,2.21c0,0-10.62,15.45,3.91,51.14
			 M259.53,265.96c0,0,6.59,2.22,11.8,0 M271.77,215.99c0.01-0.11,0.01-0.21,0.02-0.32 M248.57,280.39
			c1.57-2.63,3.28-3.42,3.28-3.42c8.24-0.87,13.38-5.64,13.38-5.64s0.23-0.21,0.46-0.42c0.23,0.21,0.46,0.42,0.46,0.42
			s5.15,4.77,13.38,5.64c0,0,6.51,3.01,5.8,16.84c-6.33,2.2-13.09,3.39-20.1,3.39c-6.67,0-13.1-1.08-19.17-3.08
			C245.66,287.19,247.05,282.93,248.57,280.39z M273.83,265.96c0,0,10.09,4.97,13.29,10.22c0,0,3.39,8.78,2.97,15.74
			c21.21-9.41,36.84-30.49,40.02-55.85c-0.04-0.14-0.09-0.3-0.09-0.3s-5.15-18.68-4.97-24.92c0,0-12.35-25.73-12.22-32.9
			c-3.73-4.26-7.95-8.03-12.55-11.18 M275.41,255.29c0,0,3.77,8.99-0.76,10.07 M255.05,255.29c0,0-3.77,8.99,0.76,10.07
			 M205.94,267.98c0,0-4.7,0.58-8.41-1.41c-3.7-1.99-2.9-6.08-2.9-6.08c-16.92-12.35-9.31-22.02-9.31-22.02
			c3.8-5.68,10.84-0.63,10.84-0.63s15.6,48.36,22.03,55.35c0,0,17.66,19.91,45.75,19.44h2.79c28.09,0.47,45.75-19.44,45.75-19.44
			c6.43-6.99,22.03-55.35,22.03-55.35s7.04-5.05,10.84,0.63c0,0,7.61,9.66-9.31,22.02c0,0,0.8,4.08-2.9,6.08
			c-3.7,1.99-8.41,1.41-8.41,1.41 M316.07,228.28c-2.23-0.4-4.48-1.96-5.81-3.03c-0.98-0.79-2.1-1.39-3.31-1.71
			c-7.56-2.03-13.08,0.02-13.08,0.02c-9.42,2.91-16.4,3.14-19.26,3.08c-0.86-0.02-1.61-0.54-1.94-1.33l-1.94-4.65
			c-0.34-0.8,0.08-1.72,0.91-1.98c4.45-1.44,17.89-5.27,29.94-3.44c0.43,0.07,0.84,0.17,1.24,0.32c2.56,0.95,12.19,4.85,15.47,11.02
			C318.28,226.57,317.81,228.59,316.07,228.28z M214.39,228.28c2.23-0.4,4.48-1.96,5.81-3.03c0.98-0.79,2.1-1.39,3.31-1.71
			c7.56-2.03,13.08,0.02,13.08,0.02c9.42,2.91,16.4,3.14,19.26,3.08c0.86-0.02,1.62-0.54,1.94-1.33l1.94-4.65
			c0.33-0.8-0.08-1.72-0.91-1.98c-4.45-1.44-17.89-5.27-29.93-3.44c-0.43,0.07-0.84,0.17-1.24,0.32
			c-2.56,0.95-12.19,4.85-15.47,11.02C212.18,226.57,212.65,228.59,214.39,228.28z M260.34,236.47c-1.15,0.31-1.81,0.62-1.81,0.62
			l-4.4,13.43c0,0-18.49,8.23-34.68,1.58c0,0-5.3-7.15-7.8-13.41c0,0-3.2,0.9-6.3,0.4c0,0-2.5-3.38-2.6-5.27c0,0,1.4-1.87,7.9-1.48
			c0,0,24.64-9.21,50.07,0.27c0.12-0.04,0.23-0.08,0.23-0.08s4.73-1.73,8.87,0.04c25.4-9.41,49.97-0.22,49.97-0.22
			c6.5-0.39,7.89,1.48,7.89,1.48c-0.1,1.89-2.6,5.27-2.6,5.27c-3.1,0.5-6.3-0.4-6.3-0.4c-2.5,6.27-7.8,13.41-7.8,13.41
			c-16.19,6.65-34.68-1.58-34.68-1.58l-4.4-13.43c-0.65-0.25-1.29-0.46-1.91-0.63C265.92,235.36,262.37,235.92,260.34,236.47z
			 M274.7,236.38l3.36,11.59c0.19,0.67,0.73,1.19,1.41,1.36c4.51,1.12,21.66,4.99,28.72,1.01c0,0,4.04-1.12,6.55-14.12
			c0.18-0.92-0.25-1.89-1.09-2.31c-0.65-0.33-1.63-0.63-3.1-0.76c0,0-19.64-2.68-34.98,1.64C274.89,234.98,274.5,235.7,274.7,236.38
			z M255.77,236.38l-3.36,11.59c-0.19,0.67-0.73,1.19-1.41,1.36c-4.51,1.12-21.66,4.99-28.72,1.01c0,0-4.04-1.12-6.55-14.12
			c-0.18-0.92,0.25-1.89,1.09-2.31c0.65-0.33,1.63-0.63,3.09-0.76c0,0,19.64-2.68,34.98,1.64
			C255.58,234.98,255.96,235.7,255.77,236.38z"/>
	</g>
</g>
</svg>
