<?xml version="1.0" encoding="utf-8"?>
<!-- Generator: Adobe Illustrator 24.0.3, SVG Export Plug-In . SVG Version: 6.00 Build 0)  -->
<svg version="1.1" xmlns="http://www.w3.org/2000/svg" xmlns:xlink="http://www.w3.org/1999/xlink" x="0px" y="0px"
	 viewBox="0 0 612 792" style="enable-background:new 0 0 612 792;" xml:space="preserve">
<style type="text/css">
	.st0{display:none;}
	.st1{display:inline;fill:#FFFFFF;stroke:#000000;stroke-miterlimit:10;}
	.st2{opacity:0.25;fill:none;stroke:#000000;stroke-width:0.25;stroke-miterlimit:10;}
</style>
<g id="Layer_1">
</g>
<g id="Layer_2" class="st0">
	<rect x="101" y="0.5" class="st1" width="241.8" height="791.5"/>
</g>
<g id="Layer_3">
	<circle class="st2" cx="172.6" cy="485.7" r="44.6"/>
	<circle class="st2" cx="282.7" cy="559.1" r="30.7"/>
	<circle class="st2" cx="257.8" cy="644.2" r="70.1"/>
	<circle class="st2" cx="232.6" cy="582.1" r="27.9"/>
	<circle class="st2" cx="234.6" cy="530.3" r="36"/>
	<circle class="st2" cx="191.7" cy="536" r="14.8"/>
	<path class="st2" d="M99.3,664c9.1-3.7,19.7-3.7,29.4,0.8c18.3,8.6,26.2,30.4,17.6,48.8c-8.3,17.8-29,25.7-47,18.4L99.3,664z"/>
	<circle class="st2" cx="198.6" cy="431.2" r="14.8"/>
	<path class="st2" d="M123.5,791.8c7.6-6.6,12.5-16.4,12.5-27.2c0-19.9-16.1-36-36-36c-0.2,0-0.5,0-0.7,0v63.2L123.5,791.8"/>
	<circle class="st2" cx="272.1" cy="478.4" r="32.4"/>
	<circle class="st2" cx="277.8" cy="518.4" r="14.8"/>
	<circle class="st2" cx="310.4" cy="710.7" r="14.8"/>
	<path class="st2" d="M204.3,791.7c-5.5-12.1-5.9-26.4,0.1-39.3c10.9-23.3,38.7-33.4,62.1-22.5c8.1,3.8,14.6,9.6,19.2,16.5
		c8.6,13.1,10.5,30.3,3.3,45.5L204.3,791.7"/>
	<circle class="st2" cx="163.3" cy="734.6" r="46.6"/>
	<circle class="st2" cx="163.3" cy="661.3" r="30.7"/>
	<path class="st2" d="M122.8,791.7c0.5-5.1,1.9-10.3,4.2-15.2c10.9-23.3,38.6-33.3,61.8-22.4c15.4,7.2,25,21.8,26.6,37.6
		L122.8,791.7z"/>
	<circle class="st2" cx="223.1" cy="716.3" r="14.8"/>
	<circle class="st2" cx="286.9" cy="719.9" r="10.4"/>
	<circle class="st2" cx="268.4" cy="722.2" r="8.1"/>
	<circle class="st2" cx="254.6" cy="720.8" r="5.7"/>
	<circle class="st2" cx="243.2" cy="719.6" r="5.2"/>
	<circle class="st2" cx="295" cy="736.3" r="8.1"/>
	<circle class="st2" cx="299.1" cy="749.7" r="5.7"/>
	<circle class="st2" cx="297" cy="760.3" r="4.9"/>
	<circle class="st2" cx="277.2" cy="729.7" r="3.2"/>
	<circle class="st2" cx="283.7" cy="733.5" r="3.2"/>
	<circle class="st2" cx="206.1" cy="702.1" r="6.7"/>
	<circle class="st2" cx="196.5" cy="692.2" r="6.8"/>
	<circle class="st2" cx="185.6" cy="688.8" r="4"/>
	<circle class="st2" cx="192.6" cy="681.4" r="4"/>
	<circle class="st2" cx="315.9" cy="691.8" r="4"/>
	<circle class="st2" cx="213.7" cy="733.2" r="3.8"/>
	<circle class="st2" cx="125.8" cy="655.9" r="6.8"/>
	<circle class="st2" cx="114.5" cy="656.3" r="4"/>
	<circle class="st2" cx="105.3" cy="656.6" r="4.7"/>
	<circle class="st2" cx="188.9" cy="558.8" r="7.6"/>
	<circle class="st2" cx="199.9" cy="553.6" r="4"/>
	<circle class="st2" cx="197.8" cy="567" r="4"/>
	<circle class="st2" cx="206" cy="560.4" r="4.7"/>
	<circle class="st2" cx="201.7" cy="572.4" r="2.2"/>
	<circle class="st2" cx="198.9" cy="560.4" r="2.2"/>
	<circle class="st2" cx="204.6" cy="567.9" r="2.7"/>
	<circle class="st2" cx="232.6" cy="469.8" r="7.6"/>
	<circle class="st2" cx="235.2" cy="481.4" r="4"/>
	<circle class="st2" cx="220" cy="468.8" r="5"/>
	<circle class="st2" cx="240.1" cy="462.7" r="2.7"/>
	<circle class="st2" cx="223.9" cy="475.2" r="2.2"/>
	<circle class="st2" cx="222.5" cy="482.1" r="4.7"/>
	<circle class="st2" cx="237.6" cy="490.6" r="3.4"/>
	<circle class="st2" cx="229" cy="479.2" r="2.2"/>
	<circle class="st2" cx="219.1" cy="476" r="1.8"/>
	<circle class="st2" cx="229.8" cy="488.2" r="4.2"/>
	<circle class="st2" cx="220.8" cy="489.9" r="3.1"/>
	<circle class="st2" cx="225.4" cy="492.9" r="2.2"/>
	<circle class="st2" cx="218.9" cy="494.9" r="1.8"/>
	<circle class="st2" cx="268" cy="441" r="5"/>
	<circle class="st2" cx="261.8" cy="445.1" r="2.2"/>
	<circle class="st2" cx="273.2" cy="431.2" r="5.6"/>
	<circle class="st2" cx="276.5" cy="439.7" r="3.3"/>
	<circle class="st2" cx="271.4" cy="423.8" r="1.8"/>
	<circle class="st2" cx="280.2" cy="435.2" r="2.2"/>
	<circle class="st2" cx="287.4" cy="437.4" r="5"/>
	<circle class="st2" cx="280.5" cy="431.2" r="1.3"/>
	<circle class="st2" cx="283.1" cy="432.5" r="1.3"/>
	<circle class="st2" cx="281.8" cy="443.5" r="2.9"/>
	<circle class="st2" cx="289.4" cy="446.4" r="3.9"/>
	<circle class="st2" cx="292.9" cy="450.9" r="1.8"/>
	<circle class="st2" cx="277.4" cy="444.4" r="1.4"/>
	<circle class="st2" cx="309.8" cy="478" r="4.7"/>
	<circle class="st2" cx="320.4" cy="481.9" r="3.1"/>
	<circle class="st2" cx="306.2" cy="489" r="2.9"/>
	<circle class="st2" cx="306.5" cy="471.9" r="1.9"/>
	<circle class="st2" cx="306.6" cy="483.7" r="1.8"/>
	<circle class="st2" cx="315.1" cy="481.9" r="1.8"/>
	<circle class="st2" cx="310.5" cy="485.5" r="2.3"/>
	<circle class="st2" cx="303.3" cy="492.3" r="1.2"/>
	<circle class="st2" cx="314.5" cy="485.5" r="1.7"/>
	<circle class="st2" cx="324.8" cy="482.8" r="1.2"/>
	<circle class="st2" cx="327" cy="481.9" r="1"/>
	<circle class="st2" cx="329.3" cy="482.5" r="0.9"/>
	<circle class="st2" cx="316.5" cy="478.6" r="1.7"/>
	<circle class="st2" cx="331.4" cy="482.6" r="0.5"/>
	<circle class="st2" cx="291" cy="507.4" r="1.7"/>
	<circle class="st2" cx="292.8" cy="505.1" r="1.1"/>
	<circle class="st2" cx="284.4" cy="739.9" r="2.7"/>
	<path class="st2" d="M123.5,791.8"/>
	<circle class="st2" cx="287.9" cy="744.3" r="2.3"/>
	<circle class="st2" cx="290.7" cy="748.6" r="2.5"/>
	<circle class="st2" cx="292" cy="753.1" r="1.8"/>
	<circle class="st2" cx="304" cy="756.8" r="2.5"/>
	<circle class="st2" cx="295.5" cy="766.9" r="1.8"/>
	<circle class="st2" cx="301.4" cy="726.9" r="3.1"/>
	<circle class="st2" cx="292.6" cy="708.1" r="2.5"/>
	<circle class="st2" cx="317.5" cy="685.7" r="1.8"/>
	<circle class="st2" cx="310.4" cy="693.6" r="1.4"/>
	<circle class="st2" cx="319.4" cy="696.4" r="1.4"/>
	<circle class="st2" cx="278.4" cy="734.6" r="1.7"/>
	<circle class="st2" cx="280.4" cy="736.8" r="1"/>
	<circle class="st2" cx="302.6" cy="731" r="1"/>
	<circle class="st2" cx="298.6" cy="723" r="1.3"/>
	<circle class="st2" cx="296.6" cy="726.9" r="1.4"/>
	<circle class="st2" cx="291.4" cy="745" r="1"/>
	<circle class="st2" cx="301.9" cy="743.2" r="1.2"/>
	<circle class="st2" cx="305.7" cy="752.8" r="1.4"/>
	<circle class="st2" cx="307.7" cy="755.2" r="1.2"/>
	<circle class="st2" cx="292.2" cy="756.4" r="1"/>
	<circle class="st2" cx="294.3" cy="755" r="0.7"/>
	<circle class="st2" cx="294.8" cy="770.2" r="1"/>
	<circle class="st2" cx="272.5" cy="731" r="1"/>
	<circle class="st2" cx="273.8" cy="732.6" r="0.7"/>
	<circle class="st2" cx="293.5" cy="745.7" r="0.7"/>
	<circle class="st2" cx="219" cy="732.5" r="1.2"/>
	<circle class="st2" cx="211.4" cy="738.3" r="1.3"/>
	<circle class="st2" cx="211.1" cy="728.3" r="1.3"/>
	<circle class="st2" cx="275.3" cy="714.7" r="1.6"/>
	<circle class="st2" cx="260.6" cy="716.5" r="1.6"/>
	<circle class="st2" cx="259.7" cy="725.6" r="1"/>
	<circle class="st2" cx="248.3" cy="723.8" r="1"/>
	<circle class="st2" cx="249" cy="715.9" r="1.3"/>
	<circle class="st2" cx="239.6" cy="713.8" r="1"/>
	<circle class="st2" cx="238" cy="724.3" r="1.1"/>
	<circle class="st2" cx="326.7" cy="711.4" r="1.2"/>
	<circle class="st2" cx="318.5" cy="682.2" r="1.2"/>
	<circle class="st2" cx="291.4" cy="790.7" r="0.9"/>
	<circle class="st2" cx="291.7" cy="788.7" r="0.6"/>
	<circle class="st2" cx="214.5" cy="702" r="1.4"/>
	<circle class="st2" cx="207.6" cy="710.2" r="1.4"/>
	<circle class="st2" cx="206.6" cy="713.4" r="1.4"/>
	<circle class="st2" cx="204.7" cy="710.4" r="0.8"/>
	<circle class="st2" cx="197.8" cy="700.8" r="1.4"/>
	<circle class="st2" cx="205" cy="693.6" r="1.4"/>
	<circle class="st2" cx="197.5" cy="683.8" r="1.2"/>
	<circle class="st2" cx="190.5" cy="686.5" r="1.1"/>
	<circle class="st2" cx="188.2" cy="693.6" r="1.1"/>
	<circle class="st2" cx="180" cy="689.4" r="1.1"/>
	<circle class="st2" cx="187.3" cy="683.4" r="1.1"/>
	<circle class="st2" cx="188.9" cy="684.9" r="0.7"/>
	<circle class="st2" cx="192.8" cy="675.6" r="1.2"/>
	<circle class="st2" cx="130.9" cy="649" r="1.4"/>
	<circle class="st2" cx="132.5" cy="651.4" r="0.8"/>
	<circle class="st2" cx="133.5" cy="649" r="0.8"/>
	<circle class="st2" cx="134.3" cy="646.9" r="0.8"/>
	<circle class="st2" cx="130.5" cy="663.2" r="1.4"/>
	<circle class="st2" cx="118.5" cy="659.9" r="1.1"/>
	<circle class="st2" cx="118.4" cy="652.4" r="0.8"/>
	<circle class="st2" cx="110.1" cy="653" r="0.9"/>
	<circle class="st2" cx="110.3" cy="659.6" r="1.1"/>
	<circle class="st2" cx="101.8" cy="651.9" r="0.8"/>
	<circle class="st2" cx="100.4" cy="653.4" r="0.8"/>
	<circle class="st2" cx="100.8" cy="661.2" r="1.3"/>
	<circle class="st2" cx="100.2" cy="658.9" r="0.6"/>
	<circle class="st2" cx="331.9" cy="440.7" r="36.9"/>
	<circle class="st2" cx="333.5" cy="530.3" r="46.1"/>
	<circle class="st2" cx="315.9" cy="586.5" r="12.3"/>
	<path class="st2" d="M357.3,792c3-14.4-4.1-29.5-18-36c-16.2-7.6-35.5-0.6-43.1,15.6c-3.1,6.6-3.8,13.7-2.4,20.3L357.3,792z"/>
	<circle class="st2" cx="333.3" cy="396.4" r="5"/>
	<circle class="st2" cx="327.2" cy="400.4" r="2.2"/>
	<circle class="st2" cx="338.6" cy="386.5" r="5.6"/>
	<circle class="st2" cx="341.9" cy="395" r="3.3"/>
	<circle class="st2" cx="336.8" cy="379.1" r="1.8"/>
	<circle class="st2" cx="345.6" cy="390.5" r="2.2"/>
	<circle class="st2" cx="352.8" cy="392.7" r="5"/>
	<circle class="st2" cx="345.9" cy="386.5" r="1.3"/>
	<circle class="st2" cx="348.4" cy="387.8" r="1.3"/>
	<circle class="st2" cx="347.1" cy="398.9" r="2.9"/>
	<circle class="st2" cx="354.7" cy="401.7" r="3.9"/>
	<circle class="st2" cx="342.8" cy="399.8" r="1.4"/>
	<circle class="st2" cx="397.3" cy="396" r="36.9"/>
	<circle class="st2" cx="448.9" cy="365.7" r="5"/>
	<circle class="st2" cx="456.2" cy="367.2" r="2.2"/>
	<circle class="st2" cx="438.3" cy="369" r="5.6"/>
	<circle class="st2" cx="442" cy="360.6" r="3.3"/>
	<circle class="st2" cx="434.3" cy="375.5" r="1.8"/>
	<circle class="st2" cx="436.2" cy="361.2" r="2.2"/>
	<circle class="st2" cx="432.6" cy="354.5" r="5"/>
	<circle class="st2" cx="433.1" cy="363.8" r="1.3"/>
	<circle class="st2" cx="432.2" cy="361.1" r="1.3"/>
	<circle class="st2" cx="440.9" cy="354.2" r="2.9"/>
	<circle class="st2" cx="437.6" cy="346.8" r="3.9"/>
	<circle class="st2" cx="444.6" cy="356.6" r="1.4"/>
	<circle class="st2" cx="403.4" cy="320.8" r="36.9"/>
	<circle class="st2" cx="370.6" cy="590.2" r="5"/>
	<circle class="st2" cx="364.4" cy="594.3" r="2.2"/>
	<circle class="st2" cx="375.8" cy="580.4" r="5.6"/>
	<circle class="st2" cx="379.1" cy="588.9" r="3.3"/>
	<circle class="st2" cx="374" cy="572.9" r="1.8"/>
	<circle class="st2" cx="382.8" cy="584.4" r="2.2"/>
	<circle class="st2" cx="390" cy="586.6" r="5"/>
	<circle class="st2" cx="383.1" cy="580.4" r="1.3"/>
	<circle class="st2" cx="385.7" cy="581.6" r="1.3"/>
	<circle class="st2" cx="384.4" cy="592.7" r="2.9"/>
	<circle class="st2" cx="392" cy="595.6" r="3.9"/>
	<circle class="st2" cx="380.1" cy="593.6" r="1.4"/>
	<circle class="st2" cx="434.5" cy="589.8" r="36.9"/>
	<circle class="st2" cx="464.4" cy="485" r="70.1"/>
	<circle class="st2" cx="517" cy="551.4" r="14.8"/>
	<circle class="st2" cx="493.5" cy="560.6" r="10.4"/>
	<circle class="st2" cx="475" cy="563" r="8.1"/>
	<circle class="st2" cx="522.5" cy="532.6" r="4"/>
	<circle class="st2" cx="499.2" cy="548.9" r="2.5"/>
	<circle class="st2" cx="524.1" cy="526.5" r="1.8"/>
	<circle class="st2" cx="517" cy="534.4" r="1.4"/>
	<circle class="st2" cx="526" cy="537.1" r="1.4"/>
	<circle class="st2" cx="481.9" cy="555.5" r="1.6"/>
	<circle class="st2" cx="533.3" cy="552.2" r="1.2"/>
	<circle class="st2" cx="525.1" cy="523" r="1.2"/>
	<circle class="st2" cx="141.9" cy="393.9" r="39.3"/>
	<circle class="st2" cx="171.3" cy="431.1" r="8.3"/>
	<circle class="st2" cx="158.2" cy="436.3" r="5.9"/>
	<circle class="st2" cx="147.8" cy="437.6" r="4.5"/>
	<circle class="st2" cx="174.4" cy="420.5" r="2.3"/>
	<circle class="st2" cx="161.4" cy="429.7" r="1.4"/>
	<circle class="st2" cx="175.3" cy="417.1" r="1"/>
	<circle class="st2" cx="171.3" cy="421.6" r="0.8"/>
	<circle class="st2" cx="176.4" cy="423.1" r="0.8"/>
	<circle class="st2" cx="151.7" cy="433.4" r="0.9"/>
	<circle class="st2" cx="180.5" cy="431.5" r="0.6"/>
	<circle class="st2" cx="175.9" cy="415.2" r="0.6"/>
</g>
</svg>
