<?xml version="1.0" encoding="utf-8"?>
<!-- Generator: Adobe Illustrator 24.0.3, SVG Export Plug-In . SVG Version: 6.00 Build 0)  -->
<svg version="1.1" id="Layer_1" xmlns="http://www.w3.org/2000/svg" xmlns:xlink="http://www.w3.org/1999/xlink" x="0px" y="0px"
	 viewBox="0 0 129.3 137.6" style="enable-background:new 0 0 129.3 137.6;" xml:space="preserve">
<style type="text/css">
	.st0{clip-path:url(#SVGID_2_);fill:none;stroke:#231F20;stroke-width:0.75;stroke-miterlimit:10;}
</style>
<g>
	<g>
		<defs>
			<rect id="SVGID_1_" x="-2.5" y="-4.3" width="131.7" height="141.9"/>
		</defs>
		<clipPath id="SVGID_2_">
			<use xlink:href="#SVGID_1_"  style="overflow:visible;"/>
		</clipPath>
		<path class="st0" d="M115.3,125.4l9.9-8.5c1-0.9,1.1-2.4,0.2-3.4L93.7,78c-0.7-0.8-0.5-2.1,0.5-2.6L123.5,60
			c1.1-0.6,1.1-2.2-0.1-2.7L5.6,3c0,0-1.3-0.6-2.6-1.2c0.3,0.9,0.7,1.9,0.7,1.9l42.5,122.4c0.4,1.2,2.1,1.4,2.8,0.3l18-27.3
			c0.7-1,2.1-1.1,3-0.2l31.9,34.7c1,1.1,2.7,1.2,3.8,0.2L115.3,125.4z"/>
	</g>
</g>
</svg>
